<svg xmlns="http://www.w3.org/2000/svg" width="1200" height="760" viewBox="0 0 1200 760" fill="none"><rect width="1200" height="760" rx="24" fill="#F5F3FF"/><rect x="60" y="70" width="500" height="620" rx="24" fill="white" stroke="#E5E7EB"/><rect x="90" y="114" width="440" height="70" rx="14" fill="#EEF2FF"/><rect x="110" y="138" width="220" height="14" rx="7" fill="#818CF8"/><rect x="90" y="204" width="440" height="100" rx="14" fill="#F9FAFB" stroke="#E5E7EB"/><rect x="90" y="322" width="440" height="100" rx="14" fill="#4F46E5"/><rect x="90" y="440" width="440" height="100" rx="14" fill="#F9FAFB" stroke="#E5E7EB"/><rect x="90" y="558" width="440" height="100" rx="14" fill="#F9FAFB" stroke="#E5E7EB"/><rect x="610" y="120" width="530" height="540" rx="20" fill="white" stroke="#E5E7EB"/><rect x="650" y="170" width="450" height="22" rx="11" fill="#D1D5DB"/><rect x="650" y="220" width="270" height="18" rx="9" fill="#9CA3AF"/><rect x="650" y="260" width="450" height="12" rx="6" fill="#E5E7EB"/><rect x="650" y="288" width="450" height="12" rx="6" fill="#E5E7EB"/><rect x="650" y="316" width="450" height="12" rx="6" fill="#E5E7EB"/><rect x="650" y="364" width="450" height="140" rx="14" fill="#EEF2FF"/><rect x="650" y="524" width="210" height="44" rx="10" fill="#FF5C35"/><rect x="880" y="524" width="220" height="44" rx="10" fill="#F3F4F6" stroke="#E5E7EB"/></svg>