<svg xmlns="http://www.w3.org/2000/svg" width="1200" height="760" viewBox="0 0 1200 760" fill="none"><rect width="1200" height="760" rx="24" fill="#F8FAFC"/><rect x="34" y="34" width="1132" height="692" rx="18" fill="white" stroke="#E5E7EB"/><rect x="62" y="70" width="230" height="620" rx="14" fill="#EEF2FF"/><rect x="84" y="102" width="186" height="16" rx="8" fill="#C7D2FE"/><rect x="84" y="138" width="150" height="12" rx="6" fill="#D1D5DB"/><rect x="84" y="178" width="186" height="76" rx="10" fill="white" stroke="#E5E7EB"/><rect x="84" y="268" width="186" height="76" rx="10" fill="white" stroke="#E5E7EB"/><rect x="84" y="358" width="186" height="76" rx="10" fill="white" stroke="#E5E7EB"/><rect x="320" y="70" width="818" height="58" rx="12" fill="#F9FAFB" stroke="#E5E7EB"/><rect x="348" y="90" width="220" height="18" rx="9" fill="#D1D5DB"/><rect x="320" y="146" width="818" height="544" rx="14" fill="#FFFFFF" stroke="#E5E7EB"/><rect x="348" y="180" width="354" height="92" rx="12" fill="#F3F4F6"/><rect x="364" y="198" width="180" height="14" rx="7" fill="#9CA3AF"/><rect x="364" y="220" width="278" height="12" rx="6" fill="#D1D5DB"/><rect x="756" y="308" width="354" height="92" rx="12" fill="#4F46E5"/><rect x="774" y="326" width="180" height="14" rx="7" fill="#C7D2FE"/><rect x="774" y="348" width="278" height="12" rx="6" fill="#E0E7FF"/><rect x="348" y="430" width="762" height="226" rx="12" fill="#F9FAFB" stroke="#E5E7EB"/><rect x="372" y="458" width="210" height="160" rx="10" fill="#EEF2FF"/><rect x="604" y="458" width="210" height="160" rx="10" fill="#F3F4F6"/><rect x="836" y="458" width="250" height="160" rx="10" fill="#F3F4F6"/></svg>